<svg preserveAspectRatio="none" overflow="visible" style="display: block;" width="24" height="24" viewBox="0 0 24 24" fill="none" xmlns="http://www.w3.org/2000/svg">
<g id="system / open_door">
<g id="Keylines">
<path id="bg" d="M24 0V24H0V0H24Z" fill="white" fill-opacity="0.01"/>
</g>
<path id="Union" d="M14.2529 2.29037C15.1671 2.13801 15.9997 2.84319 16 3.76986V20.2288C15.9997 21.1555 15.1671 21.8606 14.2529 21.7083L5.6709 20.2787C4.70678 20.1179 4.00021 19.2824 4 18.305V5.69369C4.0001 4.71622 4.70677 3.8819 5.6709 3.72103L14.2529 2.29037ZM18 5.00033C19.1046 5.00033 20 5.89576 20 7.00033V17.0003C19.9998 18.1047 19.1045 19.0003 18 19.0003H17V5.00033H18ZM11.5 10.4994C10.6717 10.4994 10.0002 11.1711 10 11.9994C10.0002 12.8276 10.6717 13.4994 11.5 13.4994C12.3283 13.4994 12.9998 12.8276 13 11.9994C12.9998 11.1711 12.3283 10.4994 11.5 10.4994Z" fill="#1577D2"/>
</g>
</svg>
